# xmcd
# 
# Track frame offsets:
#     150
#     19232
#     33375
#     49062
#     61685
#     77082
#     92372
#     108577
#     126580
#     144942
#     163047
#     182207
#     211080
#     226560
#     245020
# 
# Disc length: 3562
# 
# Revision: 1
# Processed by: cddbd v1.5.2PL0 Copyright (c) Steve Scherf et al.
# Submitted via: fre:ac v1.0.17
# 
DISCID=c00de80f
DTITLE=アリス - アリス ＣＤベスト
DYEAR=0
DGENRE=JPop
TTITLE0=チャンピオン
TTITLE1=冬の稲妻
TTITLE2=涙の誓い
TTITLE3=青春時代
TTITLE4=ジョニーの子守唄
TTITLE5=紫陽花
TTITLE6=走っておいでよ恋人よ
TTITLE7=今はもうだれも
TTITLE8=明日への讃歌
TTITLE9=遠くで汽笛を聞きながら
TTITLE10=秋止符
TTITLE11=美しき絆-ハンド・イン・ハンド-
TTITLE12=君のひとみは10000ボルト
TTITLE13=帰らざる日々
TTITLE14=さらば青春の時
EXTD=
EXTT0=
EXTT1=
EXTT2=
EXTT3=
EXTT4=
EXTT5=
EXTT6=
EXTT7=
EXTT8=
EXTT9=
EXTT10=
EXTT11=
EXTT12=
EXTT13=
EXTT14=
PLAYORDER=
